<svg width="500" height="400" viewBox="0 0 500 400" xmlns="http://www.w3.org/2000/svg">
  <defs>
    <!-- Wood texture background -->
    <pattern id="woodTexture" x="0" y="0" width="40" height="40" patternUnits="userSpaceOnUse">
      <rect width="40" height="40" fill="#f5f5dc"/>
      <line x1="0" y1="10" x2="40" y2="10" stroke="#e6dcc6" stroke-width="0.5"/>
      <line x1="0" y1="20" x2="40" y2="20" stroke="#d4c4a8" stroke-width="0.3"/>
      <line x1="0" y1="30" x2="40" y2="30" stroke="#e6dcc6" stroke-width="0.5"/>
      <circle cx="15" cy="5" r="1" fill="#d4c4a8" opacity="0.3"/>
      <circle cx="25" cy="25" r="0.8" fill="#d4c4a8" opacity="0.2"/>
    </pattern>
    
    <!-- Gradients for realistic shading -->
    <radialGradient id="heartGradient" cx="50%" cy="30%" r="70%">
      <stop offset="0%" style="stop-color:#ff6b6b;stop-opacity:1" />
      <stop offset="60%" style="stop-color:#dc2626;stop-opacity:1" />
      <stop offset="100%" style="stop-color:#991b1b;stop-opacity:1" />
    </radialGradient>
    
    <linearGradient id="handGradient1" x1="0%" y1="0%" x2="100%" y2="100%">
      <stop offset="0%" style="stop-color:#fdbcb4;stop-opacity:1" />
      <stop offset="50%" style="stop-color:#f4a261;stop-opacity:1" />
      <stop offset="100%" style="stop-color:#e76f51;stop-opacity:1" />
    </linearGradient>
    
    <linearGradient id="handGradient2" x1="0%" y1="0%" x2="100%" y2="100%">
      <stop offset="0%" style="stop-color:#f4a261;stop-opacity:1" />
      <stop offset="50%" style="stop-color:#e76f51;stop-opacity:1" />
      <stop offset="100%" style="stop-color:#d4a574;stop-opacity:1" />
    </linearGradient>
    
    <!-- Shadow filter -->
    <filter id="softShadow" x="-50%" y="-50%" width="200%" height="200%">
      <feDropShadow dx="3" dy="6" stdDeviation="4" flood-color="#00000040"/>
    </filter>
    
    <!-- Soft glow for heart -->
    <filter id="heartGlow" x="-50%" y="-50%" width="200%" height="200%">
      <feDropShadow dx="0" dy="0" stdDeviation="3" flood-color="#dc262680"/>
    </filter>
  </defs>
  
  <!-- Wood texture background -->
  <rect width="500" height="400" fill="url(#woodTexture)"/>
  
  <!-- Soft lighting overlay -->
  <ellipse cx="250" cy="150" rx="200" ry="120" fill="url(#woodTexture)" opacity="0.3"/>
  
  <g transform="translate(250,200)">
    
    <!-- Left hand (supporting from bottom) -->
    <g filter="url(#softShadow)">
      <!-- Palm -->
      <ellipse cx="-60" cy="20" rx="25" ry="35" fill="url(#handGradient1)" transform="rotate(-15)"/>
      <!-- Thumb -->
      <ellipse cx="-35" cy="5" rx="8" ry="18" fill="url(#handGradient1)" transform="rotate(-30)"/>
      <!-- Fingers -->
      <ellipse cx="-70" cy="-5" rx="6" ry="20" fill="url(#handGradient1)" transform="rotate(-10)"/>
      <ellipse cx="-80" cy="-10" rx="5" ry="18" fill="url(#handGradient1)" transform="rotate(-5)"/>
      <ellipse cx="-85" cy="-5" rx="4" ry="16" fill="url(#handGradient1)" transform="rotate(5)"/>
      <ellipse cx="-88" cy="5" rx="4" ry="14" fill="url(#handGradient1)" transform="rotate(10)"/>
    </g>
    
    <!-- Right hand (supporting from bottom) -->
    <g filter="url(#softShadow)">
      <!-- Palm -->
      <ellipse cx="60" cy="20" rx="25" ry="35" fill="url(#handGradient2)" transform="rotate(15)"/>
      <!-- Thumb -->
      <ellipse cx="35" cy="5" rx="8" ry="18" fill="url(#handGradient2)" transform="rotate(30)"/>
      <!-- Fingers -->
      <ellipse cx="70" cy="-5" rx="6" ry="20" fill="url(#handGradient2)" transform="rotate(10)"/>
      <ellipse cx="80" cy="-10" rx="5" ry="18" fill="url(#handGradient2)" transform="rotate(5)"/>
      <ellipse cx="85" cy="-5" rx="4" ry="16" fill="url(#handGradient2)" transform="rotate(-5)"/>
      <ellipse cx="88" cy="5" rx="4" ry="14" fill="url(#handGradient2)" transform="rotate(-10)"/>
    </g>
    
    <!-- Heart-shaped object with medical symbols -->
    <g filter="url(#heartGlow)">
      <!-- Main heart shape -->
      <path d="M 0,10 C -30,-20 -60,-20 -60,10 C -60,40 0,80 0,80 C 0,80 60,40 60,10 C 60,-20 30,-20 0,10 Z" 
            fill="url(#heartGradient)" stroke="#991b1b" stroke-width="2"/>
      
      <!-- Heart highlight -->
      <ellipse cx="-15" cy="-5" rx="12" ry="8" fill="#ff9999" opacity="0.6"/>
      
      <!-- Medical cross (white) -->
      <g transform="translate(-15, 15)">
        <rect x="-2" y="-12" width="4" height="24" fill="white" rx="1"/>
        <rect x="-12" y="-2" width="24" height="4" fill="white" rx="1"/>
      </g>
      
      <!-- Blood drop symbol -->
      <g transform="translate(20, 20)">
        <path d="M 0,-8 C -4,-4 -6,0 -6,4 C -6,8 -3,12 0,12 C 3,12 6,8 6,4 C 6,0 4,-4 0,-8 Z" 
              fill="#ffffff" stroke="#dc2626" stroke-width="1"/>
        <ellipse cx="-2" cy="2" rx="1.5" ry="2" fill="#dc2626" opacity="0.8"/>
      </g>
      
      <!-- Small sparkles around heart -->
      <g fill="white" opacity="0.8">
        <path d="M -40,-15 L -38,-13 L -40,-11 L -42,-13 Z"/>
        <path d="M 45,-10 L 47,-8 L 45,-6 L 43,-8 Z"/>
        <path d="M -35,45 L -33,47 L -35,49 L -37,47 Z"/>
        <path d="M 40,50 L 42,52 L 40,54 L 38,52 Z"/>
      </g>
    </g>
    
    <!-- Additional caring hands from top (gently touching) -->
    <g filter="url(#softShadow)" opacity="0.9">
      <!-- Left top hand -->
      <ellipse cx="-45" cy="-40" rx="12" ry="25" fill="url(#handGradient1)" transform="rotate(20)"/>
      <ellipse cx="-50" cy="-50" rx="4" ry="12" fill="url(#handGradient1)" transform="rotate(15)"/>
      <ellipse cx="-55" cy="-55" rx="3" ry="10" fill="url(#handGradient1)" transform="rotate(10)"/>
      
      <!-- Right top hand -->
      <ellipse cx="45" cy="-40" rx="12" ry="25" fill="url(#handGradient2)" transform="rotate(-20)"/>
      <ellipse cx="50" cy="-50" rx="4" ry="12" fill="url(#handGradient2)" transform="rotate(-15)"/>
      <ellipse cx="55" cy="-55" rx="3" ry="10" fill="url(#handGradient2)" transform="rotate(-10)"/>
    </g>
    
  </g>
  
  <!-- Soft ambient light effect -->
  <ellipse cx="250" cy="180" rx="120" ry="80" fill="white" opacity="0.1"/>
  
  <!-- Subtle wood grain details -->
  <g opacity="0.1">
    <line x1="0" y1="100" x2="500" y2="95" stroke="#8b4513" stroke-width="0.5"/>
    <line x1="0" y1="200" x2="500" y2="205" stroke="#8b4513" stroke-width="0.3"/>
    <line x1="0" y1="300" x2="500" y2="295" stroke="#8b4513" stroke-width="0.4"/>
  </g>
  
</svg>